<?xml version="1.0" encoding="UTF-8"?>
<svg width="416px" height="324px" viewBox="0 0 416 324" version="1.1" xmlns="http://www.w3.org/2000/svg" xmlns:xlink="http://www.w3.org/1999/xlink">
    <title>WOLWOX</title>
    <g id="Page-1" stroke="none" stroke-width="1" fill="none" fill-rule="evenodd">
        <path d="M78.535,122 L96.045,78.82 L113.725,122 L142.455,122 L188.015,1.3 L151.975,1.3 L125.965,83.58 L117.295,58.93 L137.695,1.3 L107.265,1.3 L96.045,38.53 L84.995,1.3 L54.565,1.3 L74.625,58.93 L66.295,83.58 L40.115,1.3 L4.245,1.3 L49.805,122 L78.535,122 Z M245.985,123.02 C255.051667,123.02 263.325,121.348333 270.805,118.005 C278.285,114.661667 284.773333,110.128333 290.27,104.405 C295.766667,98.6816667 300.016667,92.1933333 303.02,84.94 C306.023333,77.6866667 307.525,70.0933333 307.525,62.16 C307.525,54.4533333 306.08,46.945 303.19,39.635 C300.3,32.325 296.191667,25.7233333 290.865,19.83 C285.538333,13.9366667 279.135,9.26166667 271.655,5.805 C264.175,2.34833333 255.845,0.62 246.665,0.62 C237.711667,0.62 229.466667,2.26333333 221.93,5.55 C214.393333,8.83666667 207.876667,13.3416667 202.38,19.065 C196.883333,24.7883333 192.605,31.2766667 189.545,38.53 C186.485,45.7833333 184.955,53.4333333 184.955,61.48 C184.955,69.3 186.4,76.865 189.29,84.175 C192.18,91.485 196.316667,98.0583333 201.7,103.895 C207.083333,109.731667 213.515,114.378333 220.995,117.835 C228.475,121.291667 236.805,123.02 245.985,123.02 Z M246.325,93.61 C241.565,93.61 237.456667,92.7316667 234,90.975 C230.543333,89.2183333 227.681667,86.8383333 225.415,83.835 C223.148333,80.8316667 221.448333,77.4316667 220.315,73.635 C219.181667,69.8383333 218.615,65.9 218.615,61.82 C218.615,57.8533333 219.153333,53.9716667 220.23,50.175 C221.306667,46.3783333 222.978333,42.9783333 225.245,39.975 C227.511667,36.9716667 230.373333,34.5633333 233.83,32.75 C237.286667,30.9366667 241.395,30.03 246.155,30.03 C250.801667,30.03 254.881667,30.88 258.395,32.58 C261.908333,34.28 264.798333,36.6316667 267.065,39.635 C269.331667,42.6383333 271.031667,46.01 272.165,49.75 C273.298333,53.49 273.865,57.4 273.865,61.48 C273.865,65.4466667 273.326667,69.3283333 272.25,73.125 C271.173333,76.9216667 269.53,80.3783333 267.32,83.495 C265.11,86.6116667 262.248333,89.0766667 258.735,90.89 C255.221667,92.7033333 251.085,93.61 246.325,93.61 Z M409.525,122 L409.525,93.1 L354.785,93.1 L354.785,1.3 L321.635,1.3 L321.635,122 L409.525,122 Z M75.135,322 L92.645,278.82 L110.325,322 L139.055,322 L184.615,201.3 L148.575,201.3 L122.565,283.58 L113.895,258.93 L134.295,201.3 L103.865,201.3 L92.645,238.53 L81.595,201.3 L51.165,201.3 L71.225,258.93 L62.895,283.58 L36.715,201.3 L0.845,201.3 L46.405,322 L75.135,322 Z M242.585,323.02 C251.651667,323.02 259.925,321.348333 267.405,318.005 C274.885,314.661667 281.373333,310.128333 286.87,304.405 C292.366667,298.681667 296.616667,292.193333 299.62,284.94 C302.623333,277.686667 304.125,270.093333 304.125,262.16 C304.125,254.453333 302.68,246.945 299.79,239.635 C296.9,232.325 292.791667,225.723333 287.465,219.83 C282.138333,213.936667 275.735,209.261667 268.255,205.805 C260.775,202.348333 252.445,200.62 243.265,200.62 C234.311667,200.62 226.066667,202.263333 218.53,205.55 C210.993333,208.836667 204.476667,213.341667 198.98,219.065 C193.483333,224.788333 189.205,231.276667 186.145,238.53 C183.085,245.783333 181.555,253.433333 181.555,261.48 C181.555,269.3 183,276.865 185.89,284.175 C188.78,291.485 192.916667,298.058333 198.3,303.895 C203.683333,309.731667 210.115,314.378333 217.595,317.835 C225.075,321.291667 233.405,323.02 242.585,323.02 Z M242.925,293.61 C238.165,293.61 234.056667,292.731667 230.6,290.975 C227.143333,289.218333 224.281667,286.838333 222.015,283.835 C219.748333,280.831667 218.048333,277.431667 216.915,273.635 C215.781667,269.838333 215.215,265.9 215.215,261.82 C215.215,257.853333 215.753333,253.971667 216.83,250.175 C217.906667,246.378333 219.578333,242.978333 221.845,239.975 C224.111667,236.971667 226.973333,234.563333 230.43,232.75 C233.886667,230.936667 237.995,230.03 242.755,230.03 C247.401667,230.03 251.481667,230.88 254.995,232.58 C258.508333,234.28 261.398333,236.631667 263.665,239.635 C265.931667,242.638333 267.631667,246.01 268.765,249.75 C269.898333,253.49 270.465,257.4 270.465,261.48 C270.465,265.446667 269.926667,269.328333 268.85,273.125 C267.773333,276.921667 266.13,280.378333 263.92,283.495 C261.71,286.611667 258.848333,289.076667 255.335,290.89 C251.821667,292.703333 247.685,293.61 242.925,293.61 Z M337.785,322 L358.355,285.62 L378.925,322 L414.625,322 L378.075,262.5 L415.985,201.3 L380.285,201.3 L358.355,239.38 L336.425,201.3 L300.555,201.3 L338.465,262.5 L301.915,322 L337.785,322 Z" id="WOLWOX" fill="#FFFFFF" fill-rule="nonzero"></path>
    </g>
</svg>