<?xml version="1.0" encoding="UTF-8"?>
<svg width="812px" height="125px" viewBox="0 0 812 125" version="1.1" xmlns="http://www.w3.org/2000/svg" xmlns:xlink="http://www.w3.org/1999/xlink">
    <title>Group 21</title>
    <g id="Page-1" stroke="none" stroke-width="1" fill="none" fill-rule="evenodd">
        <g id="Group-21" transform="translate(0.245000, 0.620000)" fill="#FFFFFF" fill-rule="nonzero">
            <polygon id="Path" points="74.29 122.38 91.8 79.2 109.48 122.38 138.21 122.38 183.77 1.68 147.73 1.68 121.72 83.96 113.05 59.31 133.45 1.68 103.02 1.68 91.8 38.91 80.75 1.68 50.32 1.68 70.38 59.31 62.05 83.96 35.87 1.68 3.63797881e-12 1.68 45.56 122.38"></polygon>
            <path d="M242.42,1 C251.6,1 259.93,2.72833333 267.41,6.185 C274.89,9.64166667 281.293333,14.3166667 286.62,20.21 C291.946667,26.1033333 296.055,32.705 298.945,40.015 C301.835,47.325 303.28,54.8333333 303.28,62.54 C303.28,70.4733333 301.778333,78.0666667 298.775,85.32 C295.771667,92.5733333 291.521667,99.0616667 286.025,104.785 C280.528333,110.508333 274.04,115.041667 266.56,118.385 C259.08,121.728333 250.806667,123.4 241.74,123.4 C232.56,123.4 224.23,121.671667 216.75,118.215 C209.27,114.758333 202.838333,110.111667 197.455,104.275 C192.071667,98.4383333 187.935,91.865 185.045,84.555 C182.155,77.245 180.71,69.68 180.71,61.86 C180.71,53.8133333 182.24,46.1633333 185.3,38.91 C188.36,31.6566667 192.638333,25.1683333 198.135,19.445 C203.631667,13.7216667 210.148333,9.21666667 217.685,5.93 C225.221667,2.64333333 233.466667,1 242.42,1 Z M241.91,30.41 C237.15,30.41 233.041667,31.3166667 229.585,33.13 C226.128333,34.9433333 223.266667,37.3516667 221,40.355 C218.733333,43.3583333 217.061667,46.7583333 215.985,50.555 C214.908333,54.3516667 214.37,58.2333333 214.37,62.2 C214.37,66.28 214.936667,70.2183333 216.07,74.015 C217.203333,77.8116667 218.903333,81.2116667 221.17,84.215 C223.436667,87.2183333 226.298333,89.5983333 229.755,91.355 C233.211667,93.1116667 237.32,93.99 242.08,93.99 C246.84,93.99 250.976667,93.0833333 254.49,91.27 C258.003333,89.4566667 260.865,86.9916667 263.075,83.875 C265.285,80.7583333 266.928333,77.3016667 268.005,73.505 C269.081667,69.7083333 269.62,65.8266667 269.62,61.86 C269.62,57.78 269.053333,53.87 267.92,50.13 C266.786667,46.39 265.086667,43.0183333 262.82,40.015 C260.553333,37.0116667 257.663333,34.66 254.15,32.96 C250.636667,31.26 246.556667,30.41 241.91,30.41 Z" id="Combined-Shape"></path>
            <polygon id="Path" points="405.28 122.38 405.28 93.48 350.54 93.48 350.54 1.68 317.39 1.68 317.39 122.38"></polygon>
            <polygon id="Path" points="469.89 121.38 487.4 78.2 505.08 121.38 533.81 121.38 579.37 0.68 543.33 0.68 517.32 82.96 508.65 58.31 529.05 0.68 498.62 0.68 487.4 37.91 476.35 0.68 445.92 0.68 465.98 58.31 457.65 82.96 431.47 0.68 395.6 0.68 441.16 121.38"></polygon>
            <path d="M638.02,9.09494702e-13 C647.2,9.09494702e-13 655.53,1.72833333 663.01,5.185 C670.49,8.64166667 676.893333,13.3166667 682.22,19.21 C687.546667,25.1033333 691.655,31.705 694.545,39.015 C697.435,46.325 698.88,53.8333333 698.88,61.54 C698.88,69.4733333 697.378333,77.0666667 694.375,84.32 C691.371667,91.5733333 687.121667,98.0616667 681.625,103.785 C676.128333,109.508333 669.64,114.041667 662.16,117.385 C654.68,120.728333 646.406667,122.4 637.34,122.4 C628.16,122.4 619.83,120.671667 612.35,117.215 C604.87,113.758333 598.438333,109.111667 593.055,103.275 C587.671667,97.4383333 583.535,90.865 580.645,83.555 C577.755,76.245 576.31,68.68 576.31,60.86 C576.31,52.8133333 577.84,45.1633333 580.9,37.91 C583.96,30.6566667 588.238333,24.1683333 593.735,18.445 C599.231667,12.7216667 605.748333,8.21666667 613.285,4.93 C620.821667,1.64333333 629.066667,9.09494702e-13 638.02,9.09494702e-13 Z M637.51,29.41 C632.75,29.41 628.641667,30.3166667 625.185,32.13 C621.728333,33.9433333 618.866667,36.3516667 616.6,39.355 C614.333333,42.3583333 612.661667,45.7583333 611.585,49.555 C610.508333,53.3516667 609.97,57.2333333 609.97,61.2 C609.97,65.28 610.536667,69.2183333 611.67,73.015 C612.803333,76.8116667 614.503333,80.2116667 616.77,83.215 C619.036667,86.2183333 621.898333,88.5983333 625.355,90.355 C628.811667,92.1116667 632.92,92.99 637.68,92.99 C642.44,92.99 646.576667,92.0833333 650.09,90.27 C653.603333,88.4566667 656.465,85.9916667 658.675,82.875 C660.885,79.7583333 662.528333,76.3016667 663.605,72.505 C664.681667,68.7083333 665.22,64.8266667 665.22,60.86 C665.22,56.78 664.653333,52.87 663.52,49.13 C662.386667,45.39 660.686667,42.0183333 658.42,39.015 C656.153333,36.0116667 653.263333,33.66 649.75,31.96 C646.236667,30.26 642.156667,29.41 637.51,29.41 Z" id="Combined-Shape"></path>
            <polygon id="Path" points="732.54 121.38 753.11 85 773.68 121.38 809.38 121.38 772.83 61.88 810.74 0.68 775.04 0.68 753.11 38.76 731.18 0.68 695.31 0.68 733.22 61.88 696.67 121.38"></polygon>
        </g>
    </g>
</svg>